<?xml version="1.0" encoding="UTF-8" standalone="no"?>
<!DOCTYPE svg PUBLIC "-//W3C//DTD SVG 1.1//EN"
 "http://www.w3.org/Graphics/SVG/1.1/DTD/svg11.dtd">
<!-- Generated by graphviz version 2.40.1 (20161225.0304)
 -->
<!-- Title: G Pages: 1 -->
<svg width="368pt" height="794pt"
 viewBox="0.00 0.00 367.80 794.00" xmlns="http://www.w3.org/2000/svg" xmlns:xlink="http://www.w3.org/1999/xlink">
<g id="graph0" class="graph" transform="scale(1 1) rotate(0) translate(4 790)">
<title>G</title>
<polygon fill="#ffffff" stroke="transparent" points="-4,4 -4,-790 363.797,-790 363.797,4 -4,4"/>
<!-- 0 -->
<g id="node1" class="node">
<title>0</title>
<polygon fill="none" stroke="#000000" points="63,-786 29.4048,-751.5 96.5952,-751.5 63,-786"/>
<text text-anchor="middle" x="63" y="-759.3" font-family="Times,serif" font-size="14.00" fill="#000000">0</text>
</g>
<!-- 3 -->
<g id="node4" class="node">
<title>3</title>
<ellipse fill="none" stroke="#000000" cx="27" cy="-686" rx="27" ry="18"/>
<text text-anchor="middle" x="27" y="-682.3" font-family="Times,serif" font-size="14.00" fill="#000000">3</text>
</g>
<!-- 0&#45;&gt;3 -->
<g id="edge1" class="edge">
<title>0&#45;&gt;3</title>
<path fill="none" stroke="#000000" d="M57.5324,-751.3054C52.7207,-741.0137 45.537,-725.6487 39.3464,-712.4076"/>
<polygon fill="#000000" stroke="#000000" points="42.4682,-710.8208 35.0623,-703.2443 36.127,-713.7855 42.4682,-710.8208"/>
</g>
<!-- 8 -->
<g id="node9" class="node">
<title>8</title>
<ellipse fill="none" stroke="#000000" cx="99" cy="-686" rx="27" ry="18"/>
<text text-anchor="middle" x="99" y="-682.3" font-family="Times,serif" font-size="14.00" fill="#000000">8</text>
</g>
<!-- 0&#45;&gt;8 -->
<g id="edge9" class="edge">
<title>0&#45;&gt;8</title>
<path fill="none" stroke="#000000" d="M68.4676,-751.3054C73.2793,-741.0137 80.463,-725.6487 86.6536,-712.4076"/>
<polygon fill="#000000" stroke="#000000" points="89.873,-713.7855 90.9377,-703.2443 83.5318,-710.8208 89.873,-713.7855"/>
</g>
<!-- 1 -->
<g id="node2" class="node">
<title>1</title>
<polygon fill="none" stroke="#000000" points="326,-632 292.4048,-597.5 359.5952,-597.5 326,-632"/>
<text text-anchor="middle" x="326" y="-605.3" font-family="Times,serif" font-size="14.00" fill="#000000">1</text>
</g>
<!-- 6 -->
<g id="node7" class="node">
<title>6</title>
<ellipse fill="none" stroke="#000000" cx="247" cy="-532" rx="27" ry="18"/>
<text text-anchor="middle" x="247" y="-528.3" font-family="Times,serif" font-size="14.00" fill="#000000">6</text>
</g>
<!-- 1&#45;&gt;6 -->
<g id="edge5" class="edge">
<title>1&#45;&gt;6</title>
<path fill="none" stroke="#000000" d="M314.0016,-597.3054C302.2394,-585.8409 284.0183,-568.0811 269.5453,-553.9745"/>
<polygon fill="#000000" stroke="#000000" points="271.9767,-551.4569 262.3726,-546.9834 267.0908,-556.4697 271.9767,-551.4569"/>
</g>
<!-- 12 -->
<g id="node13" class="node">
<title>12</title>
<ellipse fill="none" stroke="#000000" cx="249" cy="-244" rx="27" ry="18"/>
<text text-anchor="middle" x="249" y="-240.3" font-family="Times,serif" font-size="14.00" fill="#000000">12</text>
</g>
<!-- 1&#45;&gt;12 -->
<g id="edge15" class="edge">
<title>1&#45;&gt;12</title>
<path fill="none" stroke="#000000" d="M325.7385,-597.4088C325.1964,-572.3432 324,-511.2234 324,-460 324,-460 324,-460 324,-388 324,-340.9971 292.1791,-294.1303 269.9914,-267.1646"/>
<polygon fill="#000000" stroke="#000000" points="272.5956,-264.8239 263.4608,-259.4568 267.2548,-269.349 272.5956,-264.8239"/>
</g>
<!-- 2 -->
<g id="node3" class="node">
<title>2</title>
<polygon fill="none" stroke="#000000" points="238,-781 184,-781 184,-745 238,-745 238,-781"/>
<text text-anchor="middle" x="211" y="-759.3" font-family="Times,serif" font-size="14.00" fill="#000000">2</text>
</g>
<!-- 4 -->
<g id="node5" class="node">
<title>4</title>
<ellipse fill="none" stroke="#000000" cx="285" cy="-686" rx="27" ry="18"/>
<text text-anchor="middle" x="285" y="-682.3" font-family="Times,serif" font-size="14.00" fill="#000000">4</text>
</g>
<!-- 2&#45;&gt;4 -->
<g id="edge2" class="edge">
<title>2&#45;&gt;4</title>
<path fill="none" stroke="#ff0000" d="M228.537,-744.7521C238.8854,-733.9842 252.0733,-720.2615 263.1009,-708.7869"/>
<polygon fill="#ff0000" stroke="#ff0000" points="265.9232,-710.9013 270.3289,-701.2659 260.8761,-706.0508 265.9232,-710.9013"/>
</g>
<!-- 5 -->
<g id="node6" class="node">
<title>5</title>
<ellipse fill="none" stroke="#000000" cx="247" cy="-609" rx="27" ry="18"/>
<text text-anchor="middle" x="247" y="-605.3" font-family="Times,serif" font-size="14.00" fill="#000000">5</text>
</g>
<!-- 2&#45;&gt;5 -->
<g id="edge4" class="edge">
<title>2&#45;&gt;5</title>
<path fill="none" stroke="#000000" d="M215.271,-744.7294C221.4959,-718.1009 233.114,-668.4014 240.4317,-637.0977"/>
<polygon fill="#000000" stroke="#000000" points="243.8663,-637.781 242.7345,-627.2468 237.05,-636.1875 243.8663,-637.781"/>
</g>
<!-- 7 -->
<g id="node8" class="node">
<title>7</title>
<ellipse fill="none" stroke="#000000" cx="229" cy="-460" rx="27" ry="18"/>
<text text-anchor="middle" x="229" y="-456.3" font-family="Times,serif" font-size="14.00" fill="#000000">7</text>
</g>
<!-- 2&#45;&gt;7 -->
<g id="edge7" class="edge">
<title>2&#45;&gt;7</title>
<path fill="none" stroke="#000000" d="M209.0119,-744.7189C204.941,-703.3146 197.1509,-599.3419 211,-514 212.4563,-505.0258 215.1906,-495.5277 218.0962,-487.0413"/>
<polygon fill="#000000" stroke="#000000" points="221.3883,-488.2297 221.5196,-477.6357 214.8104,-485.8355 221.3883,-488.2297"/>
</g>
<!-- 9 -->
<g id="node10" class="node">
<title>9</title>
<ellipse fill="none" stroke="#000000" cx="157" cy="-388" rx="27" ry="18"/>
<text text-anchor="middle" x="157" y="-384.3" font-family="Times,serif" font-size="14.00" fill="#000000">9</text>
</g>
<!-- 2&#45;&gt;9 -->
<g id="edge10" class="edge">
<title>2&#45;&gt;9</title>
<path fill="none" stroke="#000000" d="M199.4652,-744.8421C182.8096,-716.8331 154,-660.8859 154,-609 154,-609 154,-609 154,-532 154,-491.8673 155.1792,-445.4566 156.0589,-416.414"/>
<polygon fill="#000000" stroke="#000000" points="159.5645,-416.2872 156.3784,-406.1828 152.5679,-416.0687 159.5645,-416.2872"/>
</g>
<!-- 4&#45;&gt;5 -->
<g id="edge3" class="edge">
<title>4&#45;&gt;5</title>
<path fill="none" stroke="#000000" d="M276.3772,-668.5275C271.5334,-658.7124 265.3915,-646.2671 259.9774,-635.2963"/>
<polygon fill="#000000" stroke="#000000" points="263.0219,-633.5566 255.4578,-626.1381 256.7447,-636.6545 263.0219,-633.5566"/>
</g>
<!-- 5&#45;&gt;6 -->
<g id="edge6" class="edge">
<title>5&#45;&gt;6</title>
<path fill="none" stroke="#000000" d="M247,-590.7521C247,-581.6422 247,-570.4174 247,-560.2282"/>
<polygon fill="#000000" stroke="#000000" points="250.5001,-560.1169 247,-550.1169 243.5001,-560.117 250.5001,-560.1169"/>
</g>
<!-- 6&#45;&gt;7 -->
<g id="edge8" class="edge">
<title>6&#45;&gt;7</title>
<path fill="none" stroke="#000000" d="M242.5506,-514.2022C240.5602,-506.2406 238.1668,-496.6671 235.9489,-487.7957"/>
<polygon fill="#000000" stroke="#000000" points="239.2816,-486.6951 233.4606,-477.8425 232.4906,-488.3929 239.2816,-486.6951"/>
</g>
<!-- 7&#45;&gt;9 -->
<g id="edge11" class="edge">
<title>7&#45;&gt;9</title>
<path fill="none" stroke="#000000" d="M213.7307,-444.7307C203.803,-434.803 190.6847,-421.6847 179.5637,-410.5637"/>
<polygon fill="#000000" stroke="#000000" points="181.7933,-407.8436 172.2473,-403.2473 176.8436,-412.7933 181.7933,-407.8436"/>
</g>
<!-- 10 -->
<g id="node11" class="node">
<title>10</title>
<ellipse fill="none" stroke="#000000" cx="229" cy="-388" rx="27" ry="18"/>
<text text-anchor="middle" x="229" y="-384.3" font-family="Times,serif" font-size="14.00" fill="#000000">10</text>
</g>
<!-- 7&#45;&gt;10 -->
<g id="edge12" class="edge">
<title>7&#45;&gt;10</title>
<path fill="none" stroke="#0000ff" d="M229,-441.8314C229,-434.131 229,-424.9743 229,-416.4166"/>
<polygon fill="#0000ff" stroke="#0000ff" points="232.5001,-416.4132 229,-406.4133 225.5001,-416.4133 232.5001,-416.4132"/>
</g>
<!-- 11 -->
<g id="node12" class="node">
<title>11</title>
<ellipse fill="none" stroke="#000000" cx="249" cy="-316" rx="27" ry="18"/>
<text text-anchor="middle" x="249" y="-312.3" font-family="Times,serif" font-size="14.00" fill="#000000">11</text>
</g>
<!-- 7&#45;&gt;11 -->
<g id="edge13" class="edge">
<title>7&#45;&gt;11</title>
<path fill="none" stroke="#000000" d="M243.1229,-444.2844C251.2535,-434.1468 260.6901,-420.2347 265,-406 271.257,-385.3346 266.344,-361.2142 260.3666,-343.1482"/>
<polygon fill="#000000" stroke="#000000" points="263.5862,-341.7586 256.9009,-333.5393 257.0014,-344.1336 263.5862,-341.7586"/>
</g>
<!-- 13 -->
<g id="node14" class="node">
<title>13</title>
<ellipse fill="none" stroke="#000000" cx="213" cy="-167" rx="27" ry="18"/>
<text text-anchor="middle" x="213" y="-163.3" font-family="Times,serif" font-size="14.00" fill="#000000">13</text>
</g>
<!-- 9&#45;&gt;13 -->
<g id="edge17" class="edge">
<title>9&#45;&gt;13</title>
<path fill="none" stroke="#000000" d="M161.5827,-369.9146C171.3491,-331.3723 194.2695,-240.9185 205.9253,-194.9197"/>
<polygon fill="#000000" stroke="#000000" points="209.3689,-195.5787 208.4325,-185.0253 202.5833,-193.8592 209.3689,-195.5787"/>
</g>
<!-- 10&#45;&gt;11 -->
<g id="edge14" class="edge">
<title>10&#45;&gt;11</title>
<path fill="none" stroke="#000000" d="M233.9438,-370.2022C236.1794,-362.1541 238.8726,-352.4588 241.3593,-343.5067"/>
<polygon fill="#000000" stroke="#000000" points="244.7395,-344.4145 244.0437,-333.8425 237.9949,-342.541 244.7395,-344.4145"/>
</g>
<!-- 11&#45;&gt;12 -->
<g id="edge16" class="edge">
<title>11&#45;&gt;12</title>
<path fill="none" stroke="#000000" d="M249,-297.8314C249,-290.131 249,-280.9743 249,-272.4166"/>
<polygon fill="#000000" stroke="#000000" points="252.5001,-272.4132 249,-262.4133 245.5001,-272.4133 252.5001,-272.4132"/>
</g>
<!-- 12&#45;&gt;13 -->
<g id="edge18" class="edge">
<title>12&#45;&gt;13</title>
<path fill="none" stroke="#000000" d="M240.831,-226.5275C236.2742,-216.781 230.5049,-204.441 225.4021,-193.5267"/>
<polygon fill="#000000" stroke="#000000" points="228.5426,-191.9798 221.1366,-184.4033 222.2014,-194.9446 228.5426,-191.9798"/>
</g>
<!-- 15 -->
<g id="node16" class="node">
<title>15</title>
<ellipse fill="none" stroke="#000000" cx="258" cy="-90" rx="27" ry="18"/>
<text text-anchor="middle" x="258" y="-86.3" font-family="Times,serif" font-size="14.00" fill="#000000">15</text>
</g>
<!-- 13&#45;&gt;15 -->
<g id="edge19" class="edge">
<title>13&#45;&gt;15</title>
<path fill="none" stroke="#000000" d="M222.987,-149.9112C228.8534,-139.8731 236.3839,-126.9875 242.9571,-115.7401"/>
<polygon fill="#000000" stroke="#000000" points="246.1719,-117.1758 248.1958,-106.7761 240.1283,-113.6438 246.1719,-117.1758"/>
</g>
<!-- 14 -->
<g id="node15" class="node">
<title>14</title>
<polygon fill="none" stroke="#000000" points="303,-190 257.5081,-155.5 348.4919,-155.5 303,-190"/>
<text text-anchor="middle" x="303" y="-163.3" font-family="Times,serif" font-size="14.00" fill="#000000">14</text>
</g>
<!-- 14&#45;&gt;15 -->
<g id="edge20" class="edge">
<title>14&#45;&gt;15</title>
<path fill="none" stroke="#000000" d="M296.1655,-155.3054C290.0525,-144.8454 280.8768,-129.1448 273.0544,-115.7598"/>
<polygon fill="#000000" stroke="#000000" points="275.9769,-113.8238 267.9094,-106.956 269.9333,-117.3558 275.9769,-113.8238"/>
</g>
<!-- 16 -->
<g id="node17" class="node">
<title>16</title>
<polygon fill="none" stroke="#000000" points="285,-36 231,-36 231,0 285,0 285,-36"/>
<text text-anchor="middle" x="258" y="-14.3" font-family="Times,serif" font-size="14.00" fill="#000000">16</text>
</g>
<!-- 15&#45;&gt;16 -->
<g id="edge21" class="edge">
<title>15&#45;&gt;16</title>
<path fill="none" stroke="#000000" d="M258,-71.8314C258,-64.131 258,-54.9743 258,-46.4166"/>
<polygon fill="#000000" stroke="#000000" points="261.5001,-46.4132 258,-36.4133 254.5001,-46.4133 261.5001,-46.4132"/>
</g>
</g>
</svg>
