<?xml version="1.0" encoding="UTF-8" standalone="no"?>
<!DOCTYPE svg PUBLIC "-//W3C//DTD SVG 1.1//EN"
 "http://www.w3.org/Graphics/SVG/1.1/DTD/svg11.dtd">
<!-- Generated by graphviz version 2.40.1 (20161225.0304)
 -->
<!-- Title: structs Pages: 1 -->
<svg width="296pt" height="151pt"
 viewBox="0.00 0.00 296.00 151.00" xmlns="http://www.w3.org/2000/svg" xmlns:xlink="http://www.w3.org/1999/xlink">
<g id="graph0" class="graph" transform="scale(1 1) rotate(0) translate(4 147)">
<title>structs</title>
<polygon fill="#ffffff" stroke="transparent" points="-4,4 -4,-147 292,-147 292,4 -4,4"/>
<!-- struct1 -->
<g id="node1" class="node">
<title>struct1</title>
<polygon fill="none" stroke="#000000" points="37,-106.5 37,-142.5 200,-142.5 200,-106.5 37,-106.5"/>
<text text-anchor="middle" x="57.5" y="-120.8" font-family="Times,serif" font-size="14.00" fill="#000000">left</text>
<polyline fill="none" stroke="#000000" points="78,-106.5 78,-142.5 "/>
<text text-anchor="middle" x="113" y="-120.8" font-family="Times,serif" font-size="14.00" fill="#000000">mid dle</text>
<polyline fill="none" stroke="#000000" points="148,-106.5 148,-142.5 "/>
<text text-anchor="middle" x="174" y="-120.8" font-family="Times,serif" font-size="14.00" fill="#000000">right</text>
</g>
<!-- struct2 -->
<g id="node2" class="node">
<title>struct2</title>
<polygon fill="none" stroke="#000000" points="0,-17 0,-53 85,-53 85,-17 0,-17"/>
<text text-anchor="middle" x="21" y="-31.3" font-family="Times,serif" font-size="14.00" fill="#000000">one</text>
<polyline fill="none" stroke="#000000" points="42,-17 42,-53 "/>
<text text-anchor="middle" x="63.5" y="-31.3" font-family="Times,serif" font-size="14.00" fill="#000000">two</text>
</g>
<!-- struct1&#45;&gt;struct2 -->
<g id="edge1" class="edge">
<title>struct1&#45;&gt;struct2</title>
<path fill="none" stroke="#000000" d="M103.1203,-106.3883C91.9949,-93.2867 76.8023,-75.3954 64.4098,-60.8017"/>
<polygon fill="#000000" stroke="#000000" points="66.9976,-58.4418 57.8569,-53.0847 61.6618,-62.9728 66.9976,-58.4418"/>
</g>
<!-- struct3 -->
<g id="node3" class="node">
<title>struct3</title>
<polygon fill="none" stroke="#000000" points="103,-.5 103,-69.5 288,-69.5 288,-.5 103,-.5"/>
<text text-anchor="middle" x="131.5" y="-38.8" font-family="Times,serif" font-size="14.00" fill="#000000">hello</text>
<text text-anchor="middle" x="131.5" y="-23.8" font-family="Times,serif" font-size="14.00" fill="#000000">world</text>
<polyline fill="none" stroke="#000000" points="160,-.5 160,-69.5 "/>
<text text-anchor="middle" x="198" y="-54.3" font-family="Times,serif" font-size="14.00" fill="#000000">b</text>
<polyline fill="none" stroke="#000000" points="160,-46.5 236,-46.5 "/>
<text text-anchor="middle" x="172.5" y="-31.3" font-family="Times,serif" font-size="14.00" fill="#000000">c</text>
<polyline fill="none" stroke="#000000" points="185,-23.5 185,-46.5 "/>
<text text-anchor="middle" x="198" y="-31.3" font-family="Times,serif" font-size="14.00" fill="#000000">d</text>
<polyline fill="none" stroke="#000000" points="211,-23.5 211,-46.5 "/>
<text text-anchor="middle" x="223.5" y="-31.3" font-family="Times,serif" font-size="14.00" fill="#000000">e</text>
<polyline fill="none" stroke="#000000" points="160,-23.5 236,-23.5 "/>
<text text-anchor="middle" x="198" y="-8.3" font-family="Times,serif" font-size="14.00" fill="#000000">f</text>
<polyline fill="none" stroke="#000000" points="236,-.5 236,-69.5 "/>
<text text-anchor="middle" x="249" y="-31.3" font-family="Times,serif" font-size="14.00" fill="#000000">g</text>
<polyline fill="none" stroke="#000000" points="262,-.5 262,-69.5 "/>
<text text-anchor="middle" x="275" y="-31.3" font-family="Times,serif" font-size="14.00" fill="#000000">h</text>
</g>
<!-- struct1&#45;&gt;struct3 -->
<g id="edge2" class="edge">
<title>struct1&#45;&gt;struct3</title>
<path fill="none" stroke="#000000" d="M134.0821,-106.3883C141.2959,-98.0035 150.1974,-87.6569 158.9629,-77.4684"/>
<polygon fill="#000000" stroke="#000000" points="161.7406,-79.6064 165.6092,-69.7431 156.4341,-75.0411 161.7406,-79.6064"/>
</g>
</g>
</svg>
